<?xml version="1.0" encoding="UTF-8" standalone="no"?>
<svg
   xmlns:dc="http://purl.org/dc/elements/1.1/"
   xmlns:cc="http://creativecommons.org/ns#"
   xmlns:rdf="http://www.w3.org/1999/02/22-rdf-syntax-ns#"
   xmlns:svg="http://www.w3.org/2000/svg"
   xmlns="http://www.w3.org/2000/svg"
   xmlns:sodipodi="http://sodipodi.sourceforge.net/DTD/sodipodi-0.dtd"
   xmlns:inkscape="http://www.inkscape.org/namespaces/inkscape"
   version="1.1"
   width="32"
   height="32"
   viewBox="0 0 32 32"
   preserveAspectRatio="none"
   id="svg108"
   sodipodi:docname="logo.svg"
   inkscape:version="0.92.1 r15371">
  <metadata
     id="metadata114">
    <rdf:RDF>
      <cc:Work
         rdf:about="">
        <dc:format>image/svg+xml</dc:format>
        <dc:type
           rdf:resource="http://purl.org/dc/dcmitype/StillImage" />
        <dc:title></dc:title>
      </cc:Work>
    </rdf:RDF>
  </metadata>
  <defs
     id="defs112" />
  <sodipodi:namedview
     pagecolor="#ffffff"
     bordercolor="#666666"
     borderopacity="1"
     objecttolerance="10"
     gridtolerance="10"
     guidetolerance="10"
     inkscape:pageopacity="0"
     inkscape:pageshadow="2"
     inkscape:window-width="1920"
     inkscape:window-height="1001"
     id="namedview110"
     showgrid="false"
     fit-margin-top="0"
     fit-margin-left="0"
     fit-margin-right="0"
     fit-margin-bottom="0"
     inkscape:zoom="25.25"
     inkscape:cx="9.7623762"
     inkscape:cy="16"
     inkscape:window-x="-9"
     inkscape:window-y="-9"
     inkscape:window-maximized="1"
     inkscape:current-layer="svg108" />
  <g
     id="g3839"
     transform="translate(0,-2.5799785)">
    <g
       transform="matrix(0.04705126,0,0,0.04705126,-6.1235334,2.4053315)"
       id="g48">
      <path
         style="fill:#717171"
         inkscape:connector-curvature="0"
         id="path2"
         d="m 440.187,619.536 c -0.361,0.524 -1.444,2.101 -3.61,3.117 -1.378,0.657 -2.855,0.887 -4.201,0.887 -4.333,0 -7.352,-2.561 -7.352,-7.188 0,-3.872 2.232,-10.01 8.928,-10.01 5.317,0 6.893,3.84 6.893,6.859 0,0.984 -0.131,1.575 -0.263,2.265 h -11.389 c -0.066,0.229 -0.131,0.624 -0.131,1.148 0,1.772 1.05,3.677 3.545,3.677 2.658,0 3.807,-2.003 4.267,-2.79 z m -3.348,-6.959 c 0.164,-2.625 -1.542,-3.348 -2.855,-3.348 -2.068,0 -3.414,1.379 -4.136,3.348 z" />
      <path
         style="fill:#717171"
         inkscape:connector-curvature="0"
         id="path4"
         d="m 465.428,623.113 h -3.971 l 1.903,-8.205 c 0.23,-1.018 0.525,-2.232 0.525,-2.954 0,-1.806 -1.51,-2.035 -2.101,-2.035 -0.952,0 -2.002,0.492 -2.79,1.28 -1.05,1.148 -1.444,2.691 -1.969,4.891 l -1.608,7.023 h -3.971 l 1.838,-8.009 c 0.197,-0.755 0.558,-2.396 0.558,-2.986 0,-1.478 -0.788,-2.199 -2.002,-2.199 -0.82,0 -1.608,0.328 -2.199,0.788 -1.412,1.05 -1.805,2.494 -2.298,4.562 l -1.805,7.845 h -3.906 l 3.775,-16.312 h 3.906 l -0.394,1.739 c 0.624,-0.688 2.035,-2.034 4.529,-2.034 0.656,0 1.28,0.098 1.838,0.295 1.641,0.525 2.134,1.575 2.396,2.232 1.477,-1.576 3.479,-2.527 5.613,-2.527 2.429,0 4.726,1.443 4.726,4.233 0,1.018 -0.328,2.429 -0.624,3.774 z" />
      <path
         style="fill:#717171"
         inkscape:connector-curvature="0"
         id="path6"
         d="m 471.93,628.988 h -3.906 l 5.12,-22.22 h 3.873 l -0.427,1.771 c 1.083,-1.477 2.757,-2.198 4.595,-2.198 2.987,0 6.007,1.969 6.007,6.826 0,4.727 -2.922,10.372 -8.633,10.372 -3.381,0 -4.463,-1.772 -4.824,-2.396 z M 483.188,613.3 c 0,-2.429 -1.313,-3.709 -3.349,-3.709 -4.661,0 -4.89,6.335 -4.89,6.729 0,3.15 2.133,3.774 3.413,3.774 2.626,0 4.069,-2.363 4.628,-4.956 0.098,-0.624 0.198,-1.215 0.198,-1.838 z" />
      <path
         style="fill:#717171"
         inkscape:connector-curvature="0"
         id="path8"
         d="m 495.89,623.54 c -5.547,0 -6.991,-4.398 -6.991,-7.023 0,-2.823 1.346,-6.368 3.808,-8.305 1.575,-1.214 3.741,-1.87 5.646,-1.87 3.61,0 6.99,2.133 6.99,6.826 0,0.854 -0.131,1.74 -0.328,2.626 -1.215,5.547 -5.154,7.746 -9.125,7.746 z m 5.513,-10.273 c 0,-2.626 -1.542,-3.643 -3.282,-3.643 -4.397,0 -5.251,5.316 -5.251,6.728 0,2.232 1.182,3.808 3.348,3.808 2.232,0 4.267,-1.707 4.989,-5.021 0.131,-0.625 0.196,-1.248 0.196,-1.872 z" />
      <path
         style="fill:#717171"
         inkscape:connector-curvature="0"
         id="path10"
         d="m 522.444,623.113 h -4.268 V 612.02 l -5.316,11.094 h -4.201 l -0.591,-16.312 h 3.84 l -0.164,11.98 5.514,-11.98 h 3.873 v 11.98 l 5.58,-11.98 h 4.168 z" />
      <path
         style="fill:#717171"
         inkscape:connector-curvature="0"
         id="path12"
         d="m 545.19,619.536 c -0.361,0.524 -1.444,2.101 -3.61,3.117 -1.379,0.657 -2.855,0.887 -4.201,0.887 -4.333,0 -7.353,-2.561 -7.353,-7.188 0,-3.872 2.231,-10.01 8.928,-10.01 5.317,0 6.893,3.84 6.893,6.859 0,0.984 -0.132,1.575 -0.263,2.265 h -11.39 c -0.065,0.229 -0.131,0.624 -0.131,1.148 0,1.772 1.05,3.677 3.545,3.677 2.658,0 3.807,-2.003 4.267,-2.79 z m -3.348,-6.959 c 0.164,-2.625 -1.542,-3.348 -2.855,-3.348 -2.067,0 -3.413,1.379 -4.135,3.348 z" />
      <path
         style="fill:#717171"
         inkscape:connector-curvature="0"
         id="path14"
         d="m 550.574,623.113 h -3.938 l 3.742,-16.345 h 3.971 l -0.853,2.822 c 2.362,-3.02 4.496,-3.085 6.006,-2.987 l -0.919,4.037 c -0.689,-0.032 -0.689,-0.032 -0.952,-0.032 -0.722,0 -2.199,0.099 -3.479,1.247 -1.149,1.05 -1.51,2.33 -1.937,4.103 z" />
      <path
         style="fill:#3499cd"
         inkscape:connector-curvature="0"
         id="path16"
         d="m 560.691,623.113 h -4.332 l 1.018,-4.431 h 4.332 z" />
      <path
         style="fill:#717171"
         inkscape:connector-curvature="0"
         id="path18"
         d="m 589.052,619.536 c -0.361,0.524 -1.444,2.101 -3.61,3.117 -1.379,0.657 -2.855,0.887 -4.201,0.887 -4.333,0 -7.353,-2.561 -7.353,-7.188 0,-3.872 2.231,-10.01 8.928,-10.01 5.317,0 6.893,3.84 6.893,6.859 0,0.984 -0.132,1.575 -0.263,2.265 h -11.39 c -0.065,0.229 -0.131,0.624 -0.131,1.148 0,1.772 1.05,3.677 3.545,3.677 2.658,0 3.807,-2.003 4.267,-2.79 z m -3.349,-6.959 c 0.164,-2.625 -1.542,-3.348 -2.855,-3.348 -2.067,0 -3.413,1.379 -4.135,3.348 z" />
      <path
         style="fill:#717171"
         inkscape:connector-curvature="0"
         id="path20"
         d="m 604.742,623.146 h -4.005 l 1.871,-8.107 c 0.296,-1.346 0.46,-2.134 0.46,-2.855 0,-0.394 0,-2.265 -2.101,-2.265 -1.412,0 -2.659,0.886 -3.315,1.772 -0.788,1.083 -1.182,2.626 -1.608,4.529 l -1.608,6.926 h -3.938 L 594.24,606.8 h 3.741 l -0.427,1.806 c 0.624,-0.591 2.298,-2.101 5.088,-2.101 1.542,0 2.789,0.558 3.512,1.312 1.05,1.148 1.083,2.725 1.083,3.249 0,1.182 -0.229,2.167 -0.492,3.349 z" />
      <path
         style="fill:#717171"
         inkscape:connector-curvature="0"
         id="path22"
         d="m 624.01,617.861 c -0.46,1.904 -0.624,2.725 -0.624,3.709 0,0.788 0.099,1.149 0.197,1.543 h -4.201 c -0.065,-0.394 -0.065,-0.689 -0.065,-0.788 0,-0.263 0,-0.492 0.065,-0.886 -1.018,0.952 -2.462,2.002 -5.021,2.002 -1.346,0 -2.593,-0.295 -3.512,-0.886 -1.248,-0.821 -1.97,-2.232 -1.97,-3.808 0,-1.51 0.656,-3.02 1.772,-3.972 1.444,-1.312 3.315,-1.477 5.35,-1.706 l 3.053,-0.263 c 1.477,-0.132 1.772,-0.23 2.231,-0.395 0.197,-0.886 0.23,-1.018 0.23,-1.346 0,-0.755 -0.296,-1.772 -2.987,-1.772 -2.757,0 -3.052,1.412 -3.216,2.331 h -4.201 c 0.196,-2.101 1.805,-3.545 2.789,-4.103 1.149,-0.657 2.757,-1.018 4.825,-1.018 2.363,0 4.3,0.524 5.35,1.477 1.215,1.051 1.28,2.396 1.28,2.987 0,0.82 -0.131,1.378 -0.656,3.741 z m -7.221,-2.067 c -1.707,0.197 -1.903,0.229 -2.265,0.361 -1.148,0.394 -1.543,1.312 -1.543,2.035 0,1.182 0.952,2.133 2.527,2.133 2.002,0 4.365,-1.772 4.464,-2.133 l 0.656,-2.855 z" />
      <path
         style="fill:#717171"
         inkscape:connector-curvature="0"
         id="path24"
         d="m 630.674,623.113 h -3.938 l 5.351,-23.205 h 3.938 l -1.838,7.976 c 0.524,-0.459 1.739,-1.542 4.201,-1.542 3.741,0 6.17,2.658 6.17,6.761 0,3.873 -2.199,10.438 -8.73,10.438 -2.527,0 -3.808,-1.051 -4.759,-2.134 z m 9.912,-9.649 c 0,-3.315 -2.33,-3.742 -3.314,-3.742 -4.07,0 -4.956,5.383 -4.956,6.893 0,2.396 1.575,3.479 3.348,3.479 0.624,0 1.214,-0.099 1.707,-0.328 2.166,-0.952 2.888,-3.808 3.052,-4.727 0.098,-0.525 0.163,-1.05 0.163,-1.575 z" />
      <path
         style="fill:#717171"
         inkscape:connector-curvature="0"
         id="path26"
         d="m 649.481,623.113 h -3.971 l 5.35,-23.172 h 3.972 z" />
      <path
         style="fill:#717171"
         inkscape:connector-curvature="0"
         id="path28"
         d="m 669.438,619.536 c -0.361,0.524 -1.444,2.101 -3.61,3.117 -1.379,0.657 -2.855,0.887 -4.201,0.887 -4.333,0 -7.353,-2.561 -7.353,-7.188 0,-3.872 2.231,-10.01 8.928,-10.01 5.317,0 6.893,3.84 6.893,6.859 0,0.984 -0.132,1.575 -0.263,2.265 h -11.39 c -0.065,0.229 -0.131,0.624 -0.131,1.148 0,1.772 1.05,3.677 3.545,3.677 2.658,0 3.807,-2.003 4.267,-2.79 z m -3.348,-6.959 c 0.164,-2.625 -1.542,-3.348 -2.855,-3.348 -2.067,0 -3.413,1.379 -4.135,3.348 z" />
      <path
         style="fill:#c81e55"
         inkscape:connector-curvature="0"
         id="path30"
         d="m 674.985,623.113 h -4.332 l 1.018,-4.431 h 4.332 z" />
      <path
         style="fill:#717171"
         inkscape:connector-curvature="0"
         id="path32"
         d="m 703.083,618.452 c -0.296,0.624 -0.821,1.806 -1.937,2.889 -1.838,1.772 -4.037,2.199 -5.843,2.199 -4.726,0 -7.155,-3.02 -7.155,-7.023 0,-4.596 2.987,-10.175 8.928,-10.175 3.184,0 6.171,1.607 6.663,4.988 l -3.742,1.247 c -0.032,-0.591 -0.131,-2.986 -2.855,-2.986 -3.38,0 -4.923,3.84 -4.923,6.597 0,0.919 0.099,1.904 0.624,2.659 0.328,0.492 1.148,1.312 2.625,1.312 2.691,0 3.644,-2.265 4.037,-3.184 z" />
      <path
         style="fill:#717171"
         inkscape:connector-curvature="0"
         id="path34"
         d="m 711.158,623.54 c -5.547,0 -6.991,-4.398 -6.991,-7.023 0,-2.823 1.346,-6.368 3.808,-8.305 1.575,-1.214 3.741,-1.87 5.646,-1.87 3.61,0 6.991,2.133 6.991,6.826 0,0.854 -0.132,1.74 -0.329,2.626 -1.215,5.547 -5.153,7.746 -9.125,7.746 z m 5.514,-10.273 c 0,-2.626 -1.542,-3.643 -3.282,-3.643 -4.397,0 -5.251,5.316 -5.251,6.728 0,2.232 1.182,3.808 3.348,3.808 2.232,0 4.267,-1.707 4.989,-5.021 0.13,-0.625 0.196,-1.248 0.196,-1.872 z" />
      <path
         style="fill:#717171"
         inkscape:connector-curvature="0"
         id="path36"
         d="m 735.776,623.146 h -4.005 l 1.871,-8.107 c 0.296,-1.346 0.46,-2.134 0.46,-2.855 0,-0.394 0,-2.265 -2.101,-2.265 -1.412,0 -2.659,0.886 -3.315,1.772 -0.788,1.083 -1.182,2.626 -1.608,4.529 l -1.608,6.926 h -3.938 l 3.742,-16.346 h 3.741 l -0.427,1.806 c 0.624,-0.591 2.298,-2.101 5.088,-2.101 1.542,0 2.789,0.558 3.512,1.312 1.05,1.148 1.083,2.725 1.083,3.249 0,1.182 -0.229,2.167 -0.492,3.349 z" />
      <path
         style="fill:#717171"
         inkscape:connector-curvature="0"
         id="path38"
         d="m 753.896,623.146 h -4.005 l 1.871,-8.107 c 0.296,-1.346 0.46,-2.134 0.46,-2.855 0,-0.394 0,-2.265 -2.101,-2.265 -1.412,0 -2.659,0.886 -3.315,1.772 -0.788,1.083 -1.182,2.626 -1.608,4.529 l -1.608,6.926 h -3.938 l 3.742,-16.346 h 3.741 l -0.427,1.806 c 0.624,-0.591 2.298,-2.101 5.088,-2.101 1.542,0 2.789,0.558 3.512,1.312 1.05,1.148 1.083,2.725 1.083,3.249 0,1.182 -0.229,2.167 -0.492,3.349 z" />
      <path
         style="fill:#717171"
         inkscape:connector-curvature="0"
         id="path40"
         d="m 773.787,619.536 c -0.361,0.524 -1.444,2.101 -3.61,3.117 -1.379,0.657 -2.855,0.887 -4.201,0.887 -4.333,0 -7.353,-2.561 -7.353,-7.188 0,-3.872 2.231,-10.01 8.928,-10.01 5.316,0 6.893,3.84 6.893,6.859 0,0.984 -0.132,1.575 -0.263,2.265 h -11.39 c -0.065,0.229 -0.131,0.624 -0.131,1.148 0,1.772 1.05,3.677 3.545,3.677 2.658,0 3.807,-2.003 4.267,-2.79 z m -3.349,-6.959 c 0.164,-2.625 -1.542,-3.348 -2.855,-3.348 -2.067,0 -3.413,1.379 -4.135,3.348 z" />
      <path
         style="fill:#717171"
         inkscape:connector-curvature="0"
         id="path42"
         d="m 790.986,618.452 c -0.296,0.624 -0.821,1.806 -1.937,2.889 -1.838,1.772 -4.037,2.199 -5.843,2.199 -4.726,0 -7.155,-3.02 -7.155,-7.023 0,-4.596 2.987,-10.175 8.928,-10.175 3.184,0 6.171,1.607 6.663,4.988 l -3.742,1.247 c -0.032,-0.591 -0.131,-2.986 -2.855,-2.986 -3.38,0 -4.923,3.84 -4.923,6.597 0,0.919 0.099,1.904 0.624,2.659 0.328,0.492 1.148,1.312 2.625,1.312 2.691,0 3.644,-2.265 4.037,-3.184 z" />
      <path
         style="fill:#717171"
         inkscape:connector-curvature="0"
         id="path44"
         d="m 799.324,623.113 c -0.82,0.099 -1.379,0.197 -2.232,0.197 -0.984,0 -4.069,-0.066 -4.069,-3.315 0,-0.919 0.229,-1.969 0.558,-3.479 l 1.608,-6.893 h -2.429 l 0.656,-2.823 h 2.429 l 1.313,-5.711 h 3.905 l -1.312,5.711 h 3.02 l -0.656,2.823 h -3.02 l -1.642,7.023 c -0.197,0.886 -0.328,1.51 -0.328,1.937 0,1.018 0.656,1.346 1.871,1.346 0.394,0 0.656,-0.033 1.083,-0.065 z" />
      <path
         style="fill:#717171"
         inkscape:connector-curvature="0"
         id="path46"
         d="m 805.363,623.113 h -4.332 l 1.018,-4.431 h 4.332 z" />
    </g>
    <g
       transform="matrix(0.04705126,0,0,0.04705126,-6.1235334,2.4053315)"
       id="g66">
      <g
         id="g64">
        <path
           style="fill:#3499cd"
           inkscape:connector-curvature="0"
           id="path50"
           d="m 219.03,573.857 c -4.666,4.344 -14.319,13.192 -33.465,13.192 -31.695,0 -51.163,-25.742 -51.163,-59.207 0,-36.521 23.65,-60.815 55.989,-60.815 30.086,0 44.727,19.307 50.036,26.225 l -21.559,13.031 c -4.022,-6.113 -10.619,-16.088 -26.386,-16.088 -21.56,0 -29.765,17.858 -29.765,36.843 0,12.871 3.54,23.329 9.01,28.96 4.344,4.666 12.066,8.205 20.755,8.205 5.148,0 10.94,-1.287 15.606,-4.344 7.401,-4.826 8.366,-10.94 9.17,-16.893 h -25.42 v -21.56 h 49.393 v 63.068 H 219.03 Z" />
        <path
           style="fill:#3499cd"
           inkscape:connector-curvature="0"
           id="path52"
           d="m 341.624,542.322 c 0,21.238 -12.228,44.566 -45.049,44.566 -23.65,0 -45.209,-13.515 -45.209,-44.566 0,-25.742 16.25,-46.175 48.427,-44.404 34.269,1.93 41.831,29.12 41.831,44.404 z m -61.138,-16.571 c -3.057,4.827 -4.183,10.619 -4.183,16.411 0,13.354 6.436,25.099 20.271,25.099 13.354,0 19.95,-10.78 19.95,-23.973 0,-9.331 -2.252,-16.571 -6.918,-21.076 -5.148,-4.827 -10.94,-4.987 -14.48,-4.666 -7.078,0.482 -11.261,2.895 -14.64,8.205 z" />
        <path
           style="fill:#3499cd"
           inkscape:connector-curvature="0"
           id="path54"
           d="m 341.943,500.492 h 26.064 c 10.297,37.326 12.067,45.049 14.802,61.137 3.378,-18.662 3.861,-20.754 8.849,-40.543 l 5.148,-20.594 h 25.42 l -27.19,83.983 h -25.903 z" />
        <path
           style="fill:#c81e55"
           inkscape:connector-curvature="0"
           id="path56"
           d="m 527.929,470.889 v 113.587 h -28.478 v -48.428 h -41.509 v 48.428 H 429.304 V 470.889 h 28.638 v 41.026 h 41.509 v -41.026 z" />
        <path
           style="fill:#c81e55"
           inkscape:connector-curvature="0"
           id="path58"
           d="m 544.016,524.303 c 0.482,-5.791 1.287,-12.71 8.849,-18.662 7.723,-6.114 17.697,-7.401 27.512,-7.401 10.297,0 35.234,2.413 35.234,24.134 v 48.91 c 0,9.01 0.483,10.297 2.413,13.192 H 593.73 v -7.723 c -6.274,4.666 -13.354,9.976 -25.742,9.976 -19.307,0 -27.512,-13.837 -27.512,-25.582 0,-13.515 10.779,-21.237 17.698,-24.133 6.757,-2.896 22.685,-5.792 33.143,-7.723 v -4.505 c -0.322,-3.861 -0.644,-10.297 -9.492,-10.297 -10.94,0 -12.389,6.757 -13.032,9.813 h -24.777 z m 31.373,25.259 c -4.184,1.609 -10.619,4.022 -10.619,10.458 0,4.022 3.54,8.527 9.332,8.527 3.057,0 5.953,-1.126 8.527,-2.735 8.205,-5.148 8.526,-12.871 8.688,-21.559 z" />
        <path
           style="fill:#c81e55"
           inkscape:connector-curvature="0"
           id="path60"
           d="m 705.866,564.687 c -3.057,4.826 -6.436,10.136 -13.192,14.962 -6.436,4.506 -14.642,7.562 -24.134,7.562 -16.089,0 -41.67,-9.653 -41.67,-43.923 0,-24.455 14.158,-45.049 42.152,-45.049 9.332,0 25.26,2.574 35.878,20.111 l -18.341,10.458 c -1.448,-3.058 -3.057,-5.953 -7.079,-8.85 -2.413,-1.608 -5.471,-2.896 -9.332,-2.896 -13.354,0 -17.858,15.284 -17.858,25.42 0,11.102 5.471,25.099 18.663,25.099 1.287,0 7.401,0 12.55,-5.792 2.091,-2.413 2.896,-4.344 3.7,-6.757 z" />
        <path
           style="fill:#c81e55"
           inkscape:connector-curvature="0"
           id="path62"
           d="m 712.782,470.889 h 24.294 v 58.402 l 27.19,-28.799 h 29.765 l -28.96,29.925 32.66,54.059 h -28.638 l -21.56,-36.2 -10.618,9.976 v 26.225 H 712.781 V 470.889 Z" />
      </g>
    </g>
    <polygon
       transform="matrix(0.04705126,0,0,0.04705126,-6.1235334,2.4053315)"
       style="fill:#717171"
       id="polygon68"
       points="465.653,186.949 135.09,186.949 300.37,122.747 465.653,58.545 630.935,122.747 796.216,186.949 " />
    <rect
       style="fill:#717171;stroke-width:0.04705126"
       id="rect70"
       height="1.6240683"
       width="31.57196"
       y="22.367111"
       x="0" />
    <rect
       style="fill:#717171;stroke-width:0.04705126"
       id="rect72"
       height="0.71456748"
       width="30.142731"
       y="21.327702"
       x="0.7145673" />
    <rect
       style="fill:#717171;stroke-width:0.04705126"
       id="rect74"
       height="0.71461457"
       width="30.142731"
       y="11.526359"
       x="0.7145673" />
    <g
       transform="matrix(0.04705126,0,0,0.04705126,-6.1235334,2.4053315)"
       id="g78">
      <path
         style="fill:#3499cd"
         inkscape:connector-curvature="0"
         id="path76"
         d="m 183.593,241.759 c 8.514,0 15.425,-6.909 15.425,-15.428 0,-8.52 -6.911,-15.424 -15.425,-15.424 -8.52,0 -15.43,6.904 -15.43,15.424 0,8.519 6.91,15.428 15.43,15.428 z m 25.849,3.261 c -5.024,-1.947 -13.825,-0.897 -13.825,-0.897 0,0 -5.66,9.281 -8.723,13.761 -1.12,1.64 -2.281,2.071 -3.305,1.967 -1.021,0.104 -2.182,-0.327 -3.303,-1.967 -3.064,-4.479 -8.723,-13.761 -8.723,-13.761 0,0 -8.802,-1.05 -13.825,0.897 -2.463,0.954 -4.055,3.726 -4.055,6.484 0,17.502 0.955,53.156 1.677,59.458 0.724,6.318 7.108,6.424 8.575,4.212 0,-2.571 2.966,74.041 3.875,79.947 0.625,4.053 3.379,4.909 5.649,4.909 h 20.26 c 2.27,0 5.024,-0.856 5.649,-4.909 0.91,-5.906 3.875,-82.518 3.875,-79.947 1.467,2.211 7.851,2.105 8.576,-4.212 0.722,-6.302 1.676,-41.955 1.676,-59.458 0.001,-2.758 -1.591,-5.53 -4.053,-6.484 z" />
    </g>
    <g
       transform="matrix(0.04705126,0,0,0.04705126,-6.1235334,2.4053315)"
       id="g82">
      <path
         style="fill:#c81e55"
         inkscape:connector-curvature="0"
         id="path80"
         d="m 264.183,241.759 c 8.513,0 15.424,-6.909 15.424,-15.428 0,-8.52 -6.912,-15.424 -15.424,-15.424 -8.52,0 -15.43,6.904 -15.43,15.424 -10e-4,8.519 6.91,15.428 15.43,15.428 z m 25.85,3.261 c -5.025,-1.947 -13.827,-0.897 -13.827,-0.897 0,0 -5.66,9.281 -8.723,13.761 -1.12,1.64 -2.282,2.071 -3.305,1.967 -1.022,0.104 -2.182,-0.327 -3.304,-1.967 -3.062,-4.479 -8.723,-13.761 -8.723,-13.761 0,0 -8.8,-1.05 -13.825,0.897 -2.461,0.954 -4.054,3.726 -4.054,6.484 0,17.502 0.955,53.156 1.678,59.458 0.723,6.318 7.108,6.424 8.574,4.212 0,-2.571 2.965,74.041 3.875,79.947 0.625,4.053 3.379,4.909 5.65,4.909 h 20.258 c 2.271,0 5.025,-0.856 5.649,-4.909 0.911,-5.906 3.876,-82.518 3.876,-79.947 1.466,2.211 7.85,2.105 8.574,-4.212 0.722,-6.302 1.678,-41.955 1.678,-59.458 10e-4,-2.758 -1.589,-5.53 -4.051,-6.484 z" />
    </g>
    <g
       transform="matrix(0.04705126,0,0,0.04705126,-6.1235334,2.4053315)"
       id="g86">
      <path
         style="fill:#3499cd"
         inkscape:connector-curvature="0"
         id="path84"
         d="m 344.771,241.759 c 8.514,0 15.425,-6.909 15.425,-15.428 0,-8.52 -6.912,-15.424 -15.425,-15.424 -8.52,0 -15.431,6.904 -15.431,15.424 0,8.519 6.911,15.428 15.431,15.428 z m 25.852,3.261 c -5.025,-1.947 -13.826,-0.897 -13.826,-0.897 0,0 -5.662,9.281 -8.722,13.761 -1.122,1.64 -2.283,2.071 -3.308,1.967 -1.02,0.104 -2.182,-0.327 -3.303,-1.967 -3.061,-4.479 -8.721,-13.761 -8.721,-13.761 0,0 -8.803,-1.05 -13.826,0.897 -2.463,0.954 -4.054,3.726 -4.054,6.484 0,17.502 0.956,53.156 1.677,59.458 0.724,6.318 7.107,6.424 8.574,4.212 0,-2.571 2.968,74.041 3.877,79.947 0.624,4.053 3.378,4.909 5.648,4.909 H 354.9 c 2.27,0 5.023,-0.856 5.648,-4.909 0.909,-5.906 3.875,-82.518 3.875,-79.947 1.467,2.211 7.851,2.105 8.574,-4.212 0.723,-6.302 1.677,-41.955 1.677,-59.458 0,-2.758 -1.591,-5.53 -4.051,-6.484 z" />
    </g>
    <g
       transform="matrix(0.04705126,0,0,0.04705126,-6.1235334,2.4053315)"
       id="g90">
      <path
         style="fill:#c81e55"
         inkscape:connector-curvature="0"
         id="path88"
         d="m 425.361,241.759 c 8.513,0 15.425,-6.909 15.425,-15.428 0,-8.52 -6.912,-15.424 -15.425,-15.424 -8.52,0 -15.43,6.904 -15.43,15.424 0,8.519 6.91,15.428 15.43,15.428 z m 25.849,3.261 c -5.024,-1.947 -13.826,-0.897 -13.826,-0.897 0,0 -5.661,9.281 -8.724,13.761 -1.12,1.64 -2.279,2.071 -3.302,1.967 -1.023,0.104 -2.184,-0.327 -3.305,-1.967 -3.062,-4.479 -8.724,-13.761 -8.724,-13.761 0,0 -8.801,-1.05 -13.825,0.897 -2.461,0.954 -4.054,3.726 -4.054,6.484 0,17.502 0.956,53.156 1.677,59.458 0.724,6.318 7.11,6.424 8.575,4.212 0,-2.571 2.965,74.041 3.876,79.947 0.623,4.053 3.377,4.909 5.648,4.909 h 20.259 c 2.269,0 5.023,-0.856 5.649,-4.909 0.911,-5.906 3.876,-82.518 3.876,-79.947 1.467,2.211 7.851,2.105 8.574,-4.212 0.724,-6.302 1.678,-41.955 1.678,-59.458 0.002,-2.758 -1.592,-5.53 -4.052,-6.484 z" />
    </g>
    <g
       transform="matrix(0.04705126,0,0,0.04705126,-6.1235334,2.4053315)"
       id="g94">
      <path
         style="fill:#3499cd"
         inkscape:connector-curvature="0"
         id="path92"
         d="m 505.948,241.759 c 8.516,0 15.428,-6.909 15.428,-15.428 0,-8.52 -6.912,-15.424 -15.428,-15.424 -8.519,0 -15.429,6.904 -15.429,15.424 10e-4,8.519 6.911,15.428 15.429,15.428 z m 25.852,3.261 c -5.024,-1.947 -13.824,-0.897 -13.824,-0.897 0,0 -5.661,9.281 -8.725,13.761 -1.12,1.64 -2.281,2.071 -3.305,1.967 -1.021,0.104 -2.184,-0.327 -3.304,-1.967 -3.063,-4.479 -8.723,-13.761 -8.723,-13.761 0,0 -8.803,-1.05 -13.824,0.897 -2.464,0.954 -4.055,3.726 -4.055,6.484 0,17.502 0.955,53.156 1.678,59.458 0.724,6.318 7.107,6.424 8.575,4.212 0,-2.571 2.966,74.041 3.875,79.947 0.626,4.053 3.378,4.909 5.649,4.909 h 20.258 c 2.271,0 5.024,-0.856 5.649,-4.909 0.91,-5.906 3.875,-82.518 3.875,-79.947 1.467,2.211 7.851,2.105 8.576,-4.212 0.722,-6.302 1.677,-41.955 1.677,-59.458 0.002,-2.758 -1.59,-5.53 -4.052,-6.484 z" />
    </g>
    <g
       transform="matrix(0.04705126,0,0,0.04705126,-6.1235334,2.4053315)"
       id="g98">
      <path
         style="fill:#c81e55"
         inkscape:connector-curvature="0"
         id="path96"
         d="m 586.538,241.759 c 8.514,0 15.425,-6.909 15.425,-15.428 0,-8.52 -6.911,-15.424 -15.425,-15.424 -8.52,0 -15.43,6.904 -15.43,15.424 0,8.519 6.911,15.428 15.43,15.428 z m 25.85,3.261 c -5.024,-1.947 -13.827,-0.897 -13.827,-0.897 0,0 -5.658,9.281 -8.721,13.761 -1.121,1.64 -2.281,2.071 -3.306,1.967 -1.022,0.104 -2.183,-0.327 -3.304,-1.967 -3.062,-4.479 -8.721,-13.761 -8.721,-13.761 0,0 -8.801,-1.05 -13.826,0.897 -2.462,0.954 -4.053,3.726 -4.053,6.484 0,17.502 0.953,53.156 1.676,59.458 0.723,6.318 7.108,6.424 8.574,4.212 0,-2.571 2.965,74.041 3.875,79.947 0.624,4.053 3.381,4.909 5.65,4.909 h 20.259 c 2.27,0 5.025,-0.856 5.649,-4.909 0.911,-5.906 3.875,-82.518 3.875,-79.947 1.467,2.211 7.849,2.105 8.575,-4.212 0.722,-6.302 1.677,-41.955 1.677,-59.458 10e-4,-2.758 -1.59,-5.53 -4.052,-6.484 z" />
    </g>
    <g
       transform="matrix(0.04705126,0,0,0.04705126,-6.1235334,2.4053315)"
       id="g102">
      <path
         style="fill:#3499cd"
         inkscape:connector-curvature="0"
         id="path100"
         d="m 667.13,241.759 c 8.513,0 15.424,-6.909 15.424,-15.428 0,-8.52 -6.911,-15.424 -15.424,-15.424 -8.521,0 -15.434,6.904 -15.434,15.424 0,8.519 6.912,15.428 15.434,15.428 z m 25.849,3.261 c -5.023,-1.947 -13.825,-0.897 -13.825,-0.897 0,0 -5.66,9.281 -8.721,13.761 -1.121,1.64 -2.284,2.071 -3.309,1.967 -1.02,0.104 -2.182,-0.327 -3.304,-1.967 -3.061,-4.479 -8.721,-13.761 -8.721,-13.761 0,0 -8.803,-1.05 -13.826,0.897 -2.462,0.954 -4.053,3.726 -4.053,6.484 0,17.502 0.955,53.156 1.677,59.458 0.723,6.318 7.106,6.424 8.573,4.212 0,-2.571 2.969,74.041 3.878,79.947 0.623,4.053 3.378,4.909 5.646,4.909 h 20.263 c 2.268,0 5.021,-0.856 5.646,-4.909 0.908,-5.906 3.876,-82.518 3.876,-79.947 1.467,2.211 7.852,2.105 8.574,-4.212 0.724,-6.302 1.678,-41.955 1.678,-59.458 0.001,-2.758 -1.59,-5.53 -4.052,-6.484 z" />
    </g>
    <g
       transform="matrix(0.04705126,0,0,0.04705126,-6.1235334,2.4053315)"
       id="g106">
      <path
         style="fill:#c81e55"
         inkscape:connector-curvature="0"
         id="path104"
         d="m 747.718,241.759 c 8.514,0 15.426,-6.909 15.426,-15.428 0,-8.52 -6.912,-15.424 -15.426,-15.424 -8.52,0 -15.43,6.904 -15.43,15.424 0,8.519 6.91,15.428 15.43,15.428 z m 25.849,3.261 c -5.023,-1.947 -13.825,-0.897 -13.825,-0.897 0,0 -5.661,9.281 -8.725,13.761 -1.119,1.64 -2.278,2.071 -3.303,1.967 -1.021,0.104 -2.184,-0.327 -3.305,-1.967 -3.062,-4.479 -8.723,-13.761 -8.723,-13.761 0,0 -8.801,-1.05 -13.824,0.897 -2.462,0.954 -4.055,3.726 -4.055,6.484 0,17.502 0.957,53.156 1.678,59.458 0.724,6.318 7.11,6.424 8.575,4.212 0,-2.571 2.966,74.041 3.877,79.947 0.622,4.053 3.377,4.909 5.647,4.909 h 20.259 c 2.27,0 5.023,-0.856 5.649,-4.909 0.91,-5.906 3.875,-82.518 3.875,-79.947 1.467,2.211 7.852,2.105 8.575,-4.212 0.723,-6.302 1.678,-41.955 1.678,-59.458 0.002,-2.758 -1.592,-5.53 -4.053,-6.484 z" />
    </g>
  </g>
</svg>
